<svg xmlns="http://www.w3.org/2000/svg" viewBox="0 0 1080 1080"><defs><style>.cls-1{fill:#0c0c0c;}</style></defs><g id="cutout"><path class="cls-1" d="M540,0C241.77,0,0,241.77,0,540s241.77,540,540,540,540-241.77,540-540S838.23,0,540,0ZM502.4,700.6a3.86,3.86,0,0,0-2,1.89l-.39.36.17.16-.12.42-.05,0a201.13,201.13,0,0,1-30.5,19.75q-51.92,27.51-132.86,27.5H185.25V330.43H334.17q111.22,0,170.31,48.33l.29-.26c12.49,12.2,64.35,65.8,67.76,150.93C576.31,623.77,517.73,685.81,502.4,700.6Zm366.09-50.91a193.62,193.62,0,0,1-75.39,79.09q-49.12,28.74-119,28.74-68,0-116.48-27.19A189.58,189.58,0,0,1,520,702.85c10-9.23,76.54-73.05,72.52-173.42-3.44-85.78-56.07-139.55-68-151.21a205.27,205.27,0,0,1,36-26.7q49.42-29,118.65-29t117.1,27.19q47.88,27.19,73.23,75.08t25.33,110.31Q894.75,599.34,868.49,649.69Z"/></g></svg>