<svg xmlns="http://www.w3.org/2000/svg" viewBox="0 0 1080 1080"><defs><style>.cls-1{fill:#0c0c0c;}.cls-2{fill:#f8f8f8;}</style></defs><g id="Layer_3" data-name="Layer 3"><circle id="badge" class="cls-1" cx="540" cy="540" r="540"/><path id="oshape" class="cls-2" d="M869.42,424.75q-25.35-47.88-73.23-75.08t-117.1-27.19q-69.23,0-118.65,29a205.27,205.27,0,0,0-36,26.7c12,11.66,64.61,65.43,68,151.21C596.55,629.8,530,693.62,520,702.85a189.58,189.58,0,0,0,37.65,27.48q48.5,27.2,116.48,27.19,69.83,0,119-28.74a193.62,193.62,0,0,0,75.39-79.09q26.25-50.37,26.26-114.63Q894.75,472.65,869.42,424.75Z"/><path id="dshape" class="cls-2" d="M500.06,703.43l.12-.42-.17-.16.39-.36a3.86,3.86,0,0,1,2-1.89c15.33-14.79,73.91-76.83,70.13-171.17-3.41-85.13-55.27-138.73-67.76-150.93l-.29.26q-59.09-48.33-170.31-48.33H185.25V750.64h151.4q80.94,0,132.86-27.5A201.13,201.13,0,0,0,500,703.39Z"/></g></svg>